<svg width="35" height="34" viewBox="0 0 35 34" fill="none" xmlns="http://www.w3.org/2000/svg">
<path d="M14.5703 19.808C14.5703 21.2728 13.4766 21.7357 12.1328 21.7357H8.60938V17.721H12.2031C13.6562 17.7286 14.5703 18.3129 14.5703 19.808ZM13.9688 13.5621C13.9688 12.2188 12.8984 11.9 11.7109 11.9H8.61719V15.3H11.9531C13.1328 15.3 13.9688 14.7991 13.9688 13.5621ZM24.3047 15.3228C22.875 15.3228 21.9219 16.1879 21.8281 17.5768H26.6875C26.5547 16.1728 25.8047 15.3228 24.3047 15.3228ZM35 3.64286V30.3571C35 32.3683 33.3203 34 31.25 34H3.75C1.67969 34 0 32.3683 0 30.3571V3.64286C0 1.6317 1.67969 0 3.75 0H31.25C33.3203 0 35 1.6317 35 3.64286ZM21.2266 11.6116H27.3047V10.1772H21.2266V11.6116ZM17.8672 19.9826C17.8672 18.1536 16.9766 16.575 15.1328 16.0665C16.4766 15.4442 17.1797 14.7232 17.1797 13.2585C17.1797 10.3594 14.9531 9.65357 12.3828 9.65357H5.3125V24.225H12.5859C15.3125 24.2098 17.8672 22.9424 17.8672 19.9826ZM29.6875 18.8594C29.6875 15.7402 27.8047 13.1371 24.4062 13.1371C21.0938 13.1371 18.8516 15.5504 18.8516 18.7228C18.8516 22.0089 20.9844 24.2629 24.4062 24.2629C27 24.2629 28.6797 23.1321 29.4922 20.7112H26.8594C26.5703 21.6143 25.4062 22.0848 24.5 22.0848C22.75 22.0848 21.8359 21.0906 21.8359 19.4058H29.6641C29.6719 19.2313 29.6875 19.0415 29.6875 18.8594Z" fill="#ffffff"/>
</svg>
