<svg width="35" height="34" viewBox="0 0 35 34" fill="none" xmlns="http://www.w3.org/2000/svg">
<path d="M9.27937 14.3621L3.88816 6.31407C7.24708 2.25578 12.2855 0.0209824 17.4368 0.000416736C20.4217 -0.0201489 23.4701 0.720214 26.2433 2.27635C29.3059 4.00386 31.6345 6.48545 33.1164 9.33721L18.6293 8.59685C14.5294 8.36377 10.6272 10.6054 9.27937 14.3621ZM11.601 17.0013C11.601 20.1684 14.2401 22.7323 17.5003 22.7323C20.7604 22.7323 23.3995 20.1684 23.3995 17.0013C23.3995 13.8342 20.7604 11.2704 17.5003 11.2704C14.2401 11.2704 11.601 13.8274 11.601 17.0013V17.0013ZM33.8221 10.8865L23.9641 11.3801C26.6385 14.4169 26.6808 18.7974 24.4298 22.1565L16.5194 33.9748C19.8007 34.1462 23.1808 33.447 26.2433 31.7195C33.8221 27.4692 36.8917 18.5575 33.8221 10.8865V10.8865ZM9.43462 20.2644L2.85085 7.68511C1.05143 10.3586 0 13.5669 0 17.0013C0 25.5018 6.40735 32.5421 14.7835 33.7898L19.2785 25.2344C15.2139 25.9748 11.2905 23.8086 9.43462 20.2644V20.2644Z" fill="black"/>
</svg>
