<svg id="Camada_1" data-name="Camada 1" xmlns="http://www.w3.org/2000/svg" viewBox="0 0 50 50"><defs><style>.cls-1{fill:#ff6261;}</style></defs><title>Prancheta 1</title><path class="cls-1" d="M15.42,46.63,23,3.38h8.47L25.25,38.72H45.08l-1.42,7.91Z"/><path class="cls-1" d="M24.28,46.63A19.37,19.37,0,1,1,43.64,27.26,19.39,19.39,0,0,1,24.28,46.63Zm0-37A17.68,17.68,0,1,0,42,27.26,17.69,17.69,0,0,0,24.28,9.59Z"/><path class="cls-1" d="M24.28,45.61A18.35,18.35,0,1,1,42.63,27.26,18.37,18.37,0,0,1,24.28,45.61Zm0-35.09A16.75,16.75,0,1,0,41,27.26,16.77,16.77,0,0,0,24.28,10.52Z"/></svg>