<svg id="Camada_1" data-name="Camada 1" xmlns="http://www.w3.org/2000/svg" viewBox="0 0 200 200"><defs><style>.cls-1{fill:#6d28d9;}.cls-2{fill:none;}</style></defs><title>logo-s</title><path class="cls-1" d="M100,185.71A85.71,85.71,0,1,1,185.71,100,85.81,85.81,0,0,1,100,185.71Zm0-157.47A71.76,71.76,0,1,0,171.76,100,71.84,71.84,0,0,0,100,28.24Z"/><polygon class="cls-1" points="123.53 115.52 146.95 115.52 100.13 48.33 53.31 115.52 76.73 115.52 100.13 81.94 123.53 115.52"/><polygon class="cls-2" points="91.35 128.14 100.13 140.74 108.91 128.14 100.13 115.54 91.35 128.14"/><path class="cls-1" d="M117.72,128.12h0l-17.56-25.21L82.56,128.12h0l0,0,0,0h0l17.57,25.21,17.56-25.21h0v0Zm-17.59,12.62-8.78-12.6,8.78-12.6,8.78,12.6Z"/></svg>