<svg width="81" height="59" viewBox="0 0 81 59" fill="none" xmlns="http://www.w3.org/2000/svg">
<path d="M68.3961 45.2C63.9961 46.5 62.5961 48.4 62.5961 48.4C62.7961 48.3 63.0961 48.1 63.2961 48C63.9961 47.6 64.5961 47.5 65.1961 47.4C65.2961 47.4 65.4961 47.4 65.5961 47.4C65.6961 47.4 65.8961 47.4 65.9961 47.4C66.4961 47.4 66.8961 47.4 67.2961 47.4C67.3961 47.4 67.4961 47.4 67.5961 47.4H67.6961C67.7961 47.4 67.8961 47.4 67.9961 47.4H68.0961C68.1961 47.4 68.2961 47.4 68.3961 47.4C68.4961 47.4 68.4961 47.4 68.5961 47.4C68.6961 47.4 68.7961 47.4 68.8961 47.3C68.9961 47.3 68.9961 47.3 69.0961 47.3C69.1961 47.3 69.2961 47.2 69.4961 47.2C69.5961 47.2 69.5961 47.2 69.6961 47.1C69.8961 47 70.0961 47 70.2961 46.9C70.3961 46.8 70.4961 46.8 70.6961 46.7C70.6961 46.7 70.6961 46.7 70.7961 46.7C73.5961 45 73.9961 39.9 73.9961 39.9C73.9961 39.9 72.7961 43.9 68.3961 45.2Z" fill="#DF3335"/>
<path d="M54.096 12.3C54.596 11.6 54.996 11.2 55.496 10.9C55.596 10.8 55.696 10.7 55.796 10.7C55.896 10.6 55.996 10.6 56.096 10.5C56.496 10.3 56.896 10.1 57.296 9.9C57.396 9.8 57.496 9.8 57.596 9.7C57.596 9.7 57.696 9.7 57.696 9.6C57.796 9.6 57.896 9.5 57.896 9.4L57.996 9.3C58.096 9.2 58.196 9.2 58.196 9.1L58.296 9C58.396 8.9 58.496 8.9 58.496 8.8L58.596 8.7C58.696 8.6 58.796 8.5 58.896 8.4L58.996 8.3C59.096 8.2 59.296 8 59.396 7.8C59.496 7.7 59.596 7.6 59.596 7.5C59.596 7.5 59.596 7.5 59.596 7.4C61.696 4.7 59.696 0 59.696 0C59.696 0 60.596 4.1 57.296 7.3C53.996 10.5 53.696 12.9 53.696 12.9C53.896 12.7 53.996 12.5 54.096 12.3Z" fill="#DF3335"/>
<path d="M21.5961 7.6C21.6961 7.7 21.7961 7.8 21.7961 7.9C21.8961 8.1 22.0961 8.2 22.1961 8.4L22.2961 8.5C22.3961 8.6 22.4961 8.7 22.5961 8.8L22.6961 8.9C22.8961 8.9 22.8961 9 22.9961 9.1L23.0961 9.2C23.1961 9.3 23.2961 9.3 23.2961 9.4L23.3961 9.5C23.4961 9.6 23.5961 9.6 23.5961 9.7C23.5961 9.7 23.6961 9.7 23.6961 9.8C23.7961 9.9 23.8961 9.9 23.9961 10C24.3961 10.2 24.7961 10.4 25.1961 10.6C25.2961 10.7 25.3961 10.7 25.4961 10.8C25.5961 10.9 25.6961 10.9 25.7961 11C26.2961 11.3 26.6961 11.8 27.1961 12.4C27.2961 12.6 27.4961 12.8 27.5961 13C27.5961 13 27.2961 10.6 23.9961 7.4C20.9961 4.1 21.8961 0 21.8961 0C21.8961 0 19.8961 4.7 21.5961 7.6C21.5961 7.5 21.5961 7.5 21.5961 7.6Z" fill="#DF3335"/>
<path d="M12.8961 45.2C8.49606 43.9 7.39606 39.8 7.39606 39.8C7.39606 39.8 7.79606 44.9 10.5961 46.6C10.5961 46.6 10.5961 46.6 10.6961 46.6C10.7961 46.7 10.8961 46.7 11.0961 46.8C11.2961 46.9 11.4961 47 11.6961 47C11.7961 47 11.7961 47 11.8961 47.1C11.9961 47.1 12.0961 47.2 12.2961 47.2C12.3961 47.2 12.3961 47.2 12.4961 47.2C12.5961 47.2 12.6961 47.2 12.7961 47.3C12.8961 47.3 12.8961 47.3 12.9961 47.3C13.0961 47.3 13.1961 47.3 13.2961 47.3C13.3961 47.3 13.3961 47.3 13.3961 47.3C13.4961 47.3 13.5961 47.3 13.6961 47.3H13.7961C13.8961 47.3 13.9961 47.3 14.0961 47.3C14.5961 47.3 14.9961 47.3 15.3961 47.3C15.4961 47.3 15.6961 47.3 15.7961 47.3C15.8961 47.3 16.0961 47.3 16.1961 47.3C16.7961 47.4 17.3961 47.6 18.0961 47.9C18.2961 48 18.4961 48.1 18.7961 48.3C18.6961 48.5 17.2961 46.5 12.8961 45.2Z" fill="#DF3335"/>
<path d="M80.7961 13.6C80.7961 13.6 79.8961 14.8 78.2961 16.6C78.5961 14.7 78.6961 12.7 78.4961 10.6C78.4961 10.6 75.7961 14.6 70.6961 18.4C71.9961 14 72.3961 8.79999 70.7961 3.19999C70.7961 3.19999 64.8961 17.4 50.1961 23C48.1961 23.8 46.4961 24.8 44.9961 26C44.9961 26 44.9961 26 44.9961 25.9C46.6961 24 47.7961 21.1 47.7961 17.9C47.7961 15.2 46.9961 12.7 45.7961 10.9C44.8961 9.49999 43.7961 8.49999 42.3961 7.99999C42.0961 7.89999 41.6961 7.69999 41.2961 7.69999C41.7961 6.59999 42.0961 5.39999 42.0961 4.19999C42.0961 3.59999 41.9961 2.89999 41.8961 2.29999V2.39999C41.8961 4.49999 40.6961 6.39999 38.7961 7.69999C38.5961 7.79999 38.3961 7.89999 38.2961 7.99999C36.7961 8.69999 35.6961 10.3 35.6961 12.1C35.6961 12.3 35.6961 12.5 35.6961 12.7C35.5961 12.8 35.5961 12.9 35.5961 13C35.5961 13 35.5961 13.1 35.4961 13.1C35.3961 13.4 35.2961 13.6 35.1961 13.9C34.8961 14.9 34.6961 15.9 34.6961 17C34.6961 18.1 34.8961 19.1 35.1961 20.1C35.1961 18.4 35.9961 16.9 37.2961 15.8C37.9961 15.2 38.8961 14.7 39.8961 14.3C39.9961 14.3 40.1961 14.2 40.2961 14.2C40.6961 14.9 40.8961 15.7 41.0961 16.5C41.1961 17 41.1961 17.5 41.1961 17.9C41.1961 18.1 41.1961 18.3 41.1961 18.4C41.1961 18.4 41.1961 18.4 41.1961 18.5C41.1961 18.7 41.1961 18.8 41.0961 19V19.1C41.0961 19.3 40.9961 19.4 40.9961 19.6V19.7C40.9961 19.9 40.8961 20 40.8961 20.2C40.8961 20.2 40.8961 20.2 40.8961 20.3C40.8961 20.5 40.7961 20.6 40.6961 20.8C40.5961 21 40.5961 21.1 40.4961 21.3C40.3961 21.5 40.3961 21.6 40.2961 21.8C40.1961 21.9 40.0961 22.1 40.0961 22.2C40.0961 22.2 40.0961 22.2 40.0961 22.3C39.9961 22.4 39.8961 22.6 39.7961 22.7C39.6961 22.8 39.5961 23 39.4961 23.1C39.2961 23.4 38.9961 23.6 38.7961 23.9C38.6961 24 38.5961 24.1 38.3961 24.2C38.2961 24.3 38.0961 24.4 37.9961 24.5C37.8961 24.6 37.6961 24.7 37.5961 24.8C37.4961 24.9 37.2961 25 37.0961 25.1C36.6961 25.3 36.2961 25.5 35.9961 25.7C35.8961 25.8 35.7961 25.9 35.5961 25.9C34.1961 24.8 32.5961 23.8 30.5961 23C16.0961 17.5 10.0961 3.29999 10.0961 3.29999C8.49607 8.99999 8.99607 14.2 10.2961 18.7C5.09608 14.8 2.29607 10.7 2.29607 10.7C2.09607 12.8 2.19607 14.7 2.49607 16.6C0.896075 14.9 0.0960747 13.7 0.0960747 13.7C-0.503925 20.5 1.79607 26.2 4.49607 30.4C4.49607 30.4 4.49607 30.5 4.59607 30.5C4.59607 30.5 4.59607 30.5 4.59607 30.4C8.19607 32 12.0961 33.2 15.3961 33.8C17.2961 34.2 19.1961 35.2 20.9961 36.5C16.5961 35 12.3961 35.6 8.39607 34.6C8.09607 34.5 7.79607 34.4 7.39607 34.3C7.99607 34.9 8.49607 35.5 8.99607 36C12.6961 39.9 21.6961 43.6 27.8961 44.8C29.6961 45.1 31.4961 46.1 33.0961 47.3C28.9961 45.9 25.0961 46.4 21.3961 45.5C20.5961 45.3 19.7961 45 19.0961 44.7C19.0961 44.7 20.5961 48.6 24.9961 49.3C25.3961 49.4 25.7961 49.4 26.1961 49.5C30.7961 50.3 34.0961 51.3 36.3961 53.1C36.4961 53.2 36.5961 53.3 36.6961 53.4C36.7961 53.5 36.8961 53.6 36.9961 53.7C36.9961 53.7 36.9961 53.7 37.0961 53.7C37.1961 53.8 37.2961 53.9 37.3961 54C37.3961 54 37.3961 54 37.4961 54.1C37.5961 54.2 37.6961 54.3 37.7961 54.4L37.8961 54.5C37.9961 54.6 38.0961 54.7 38.0961 54.8L38.1961 54.9C38.2961 55 38.2961 55.1 38.3961 55.2L38.4961 55.3C38.5961 55.4 38.5961 55.5 38.6961 55.6L38.7961 55.7C38.8961 55.8 38.8961 55.9 38.9961 55.9C38.9961 56 39.0961 56 39.0961 56.1C39.1961 56.2 39.1961 56.3 39.2961 56.3C39.2961 56.4 39.3961 56.4 39.3961 56.5C39.3961 56.6 39.4961 56.7 39.4961 56.7C39.4961 56.7 39.4961 56.8 39.5961 56.8C39.5961 56.8 39.5961 56.9 39.6961 56.9L40.6961 58.9L41.6961 56.9C41.6961 56.9 41.6961 56.8 41.7961 56.8C41.7961 56.8 41.7961 56.7 41.8961 56.7C41.8961 56.6 41.9961 56.5 41.9961 56.5C41.9961 56.4 42.0961 56.4 42.0961 56.3C42.0961 56.2 42.1961 56.1 42.2961 56.1C42.2961 56 42.3961 56 42.3961 55.9C42.4961 55.8 42.4961 55.7 42.5961 55.7L42.6961 55.6C42.7961 55.5 42.7961 55.4 42.8961 55.3L42.9961 55.2C43.0961 55.1 43.0961 55 43.1961 54.9L43.2961 54.8C43.3961 54.7 43.4961 54.6 43.4961 54.5L43.5961 54.4C43.6961 54.3 43.7961 54.2 43.8961 54.1C43.8961 54.1 43.8961 54.1 43.9961 54C44.0961 53.9 44.1961 53.8 44.2961 53.7C44.2961 53.7 44.2961 53.7 44.3961 53.7C44.4961 53.6 44.5961 53.5 44.6961 53.4C44.7961 53.3 44.8961 53.2 44.9961 53.1C47.3961 51.3 50.6961 50.3 55.1961 49.5C55.5961 49.4 55.9961 49.4 56.3961 49.3C60.7961 48.6 62.2961 44.7 62.2961 44.7C62.1961 44.7 62.1961 44.7 62.0961 44.8C61.3961 45.1 60.6961 45.4 59.9961 45.6C56.2961 46.5 52.3961 46 48.2961 47.4C49.9961 46.2 51.6961 45.2 53.4961 44.9C56.4961 44.3 60.1961 43.2 63.4961 41.7C67.0961 40.1 70.4961 38.1 72.3961 36.1C72.9961 35.5 73.5961 34.7 74.2961 33.9C73.9961 34 73.5961 34.1 73.2961 34.2C69.2961 35.2 65.0961 34.6 60.6961 36.1C62.4961 34.8 64.3961 33.8 66.2961 33.4C69.4961 32.8 73.3961 31.6 77.0961 30C79.2961 25.7 81.3961 20.2 80.7961 13.6Z" fill="#DF3335"/>
</svg>
